<?xml version="1.0" encoding="utf-8" standalone="no"?>
<!DOCTYPE svg PUBLIC "-//W3C//DTD SVG 1.1//EN"
  "http://www.w3.org/Graphics/SVG/1.1/DTD/svg11.dtd">
<!-- Created with matplotlib (https://matplotlib.org/) -->
<svg height="288pt" version="1.1" viewBox="0 0 720 288" width="720pt" xmlns="http://www.w3.org/2000/svg" xmlns:xlink="http://www.w3.org/1999/xlink">
 <defs>
  <style type="text/css">
*{stroke-linecap:butt;stroke-linejoin:round;}
  </style>
 </defs>
 <g id="figure_1">
  <g id="patch_1">
   <path d="M 0 288 
L 720 288 
L 720 0 
L 0 0 
z
" style="fill:#ffffff;"/>
  </g>
  <g id="axes_1">
   <g id="patch_2">
    <path d="M 90 252 
L 648 252 
L 648 34.56 
L 90 34.56 
z
" style="fill:#eaeaf2;"/>
   </g>
   <g id="matplotlib.axis_1">
    <g id="xtick_1">
     <g id="line2d_1">
      <path clip-path="url(#pb2821497b8)" d="M 90 252 
L 90 34.56 
" style="fill:none;stroke:#ffffff;stroke-linecap:round;"/>
     </g>
     <g id="text_1">
      <!-- Jul -->
      <defs>
       <path d="M 2.875 20.3125 
L 11.421875 21.484375 
Q 11.765625 13.28125 14.5 10.25 
Q 17.234375 7.234375 22.078125 7.234375 
Q 25.640625 7.234375 28.21875 8.859375 
Q 30.8125 10.5 31.78125 13.296875 
Q 32.765625 16.109375 32.765625 22.265625 
L 32.765625 71.578125 
L 42.234375 71.578125 
L 42.234375 22.796875 
Q 42.234375 13.8125 40.0625 8.875 
Q 37.890625 3.953125 33.171875 1.359375 
Q 28.46875 -1.21875 22.125 -1.21875 
Q 12.703125 -1.21875 7.6875 4.203125 
Q 2.6875 9.625 2.875 20.3125 
z
" id="ArialMT-74"/>
       <path d="M 40.578125 0 
L 40.578125 7.625 
Q 34.515625 -1.171875 24.125 -1.171875 
Q 19.53125 -1.171875 15.546875 0.578125 
Q 11.578125 2.34375 9.640625 5 
Q 7.71875 7.671875 6.9375 11.53125 
Q 6.390625 14.109375 6.390625 19.734375 
L 6.390625 51.859375 
L 15.1875 51.859375 
L 15.1875 23.09375 
Q 15.1875 16.21875 15.71875 13.8125 
Q 16.546875 10.359375 19.234375 8.375 
Q 21.921875 6.390625 25.875 6.390625 
Q 29.828125 6.390625 33.296875 8.421875 
Q 36.765625 10.453125 38.203125 13.9375 
Q 39.65625 17.4375 39.65625 24.078125 
L 39.65625 51.859375 
L 48.4375 51.859375 
L 48.4375 0 
z
" id="ArialMT-117"/>
       <path d="M 6.390625 0 
L 6.390625 71.578125 
L 15.1875 71.578125 
L 15.1875 0 
z
" id="ArialMT-108"/>
      </defs>
      <g style="fill:#262626;" transform="translate(82.969453 269.373594)scale(0.11 -0.11)">
       <use xlink:href="#ArialMT-74"/>
       <use x="50" xlink:href="#ArialMT-117"/>
       <use x="105.615234" xlink:href="#ArialMT-108"/>
      </g>
     </g>
    </g>
    <g id="xtick_2">
     <g id="line2d_2">
      <path clip-path="url(#pb2821497b8)" d="M 154.818182 252 
L 154.818182 34.56 
" style="fill:none;stroke:#ffffff;stroke-linecap:round;"/>
     </g>
     <g id="text_2">
      <!-- Oct -->
      <defs>
       <path d="M 4.828125 34.859375 
Q 4.828125 52.6875 14.390625 62.765625 
Q 23.96875 72.859375 39.109375 72.859375 
Q 49.03125 72.859375 56.984375 68.109375 
Q 64.9375 63.375 69.109375 54.90625 
Q 73.296875 46.4375 73.296875 35.6875 
Q 73.296875 24.8125 68.890625 16.21875 
Q 64.5 7.625 56.4375 3.203125 
Q 48.390625 -1.21875 39.0625 -1.21875 
Q 28.953125 -1.21875 20.984375 3.65625 
Q 13.03125 8.546875 8.921875 16.984375 
Q 4.828125 25.4375 4.828125 34.859375 
z
M 14.59375 34.71875 
Q 14.59375 21.78125 21.546875 14.328125 
Q 28.515625 6.890625 39.015625 6.890625 
Q 49.703125 6.890625 56.609375 14.40625 
Q 63.53125 21.921875 63.53125 35.75 
Q 63.53125 44.484375 60.578125 51 
Q 57.625 57.515625 51.921875 61.109375 
Q 46.234375 64.703125 39.15625 64.703125 
Q 29.109375 64.703125 21.84375 57.78125 
Q 14.59375 50.875 14.59375 34.71875 
z
" id="ArialMT-79"/>
       <path d="M 40.4375 19 
L 49.078125 17.875 
Q 47.65625 8.9375 41.8125 3.875 
Q 35.984375 -1.171875 27.484375 -1.171875 
Q 16.84375 -1.171875 10.375 5.78125 
Q 3.90625 12.75 3.90625 25.734375 
Q 3.90625 34.125 6.6875 40.421875 
Q 9.46875 46.734375 15.15625 49.875 
Q 20.84375 53.03125 27.546875 53.03125 
Q 35.984375 53.03125 41.359375 48.75 
Q 46.734375 44.484375 48.25 36.625 
L 39.703125 35.296875 
Q 38.484375 40.53125 35.375 43.15625 
Q 32.28125 45.796875 27.875 45.796875 
Q 21.234375 45.796875 17.078125 41.03125 
Q 12.9375 36.28125 12.9375 25.984375 
Q 12.9375 15.53125 16.9375 10.796875 
Q 20.953125 6.0625 27.390625 6.0625 
Q 32.5625 6.0625 36.03125 9.234375 
Q 39.5 12.40625 40.4375 19 
z
" id="ArialMT-99"/>
       <path d="M 25.78125 7.859375 
L 27.046875 0.09375 
Q 23.34375 -0.6875 20.40625 -0.6875 
Q 15.625 -0.6875 12.984375 0.828125 
Q 10.359375 2.34375 9.28125 4.8125 
Q 8.203125 7.28125 8.203125 15.1875 
L 8.203125 45.015625 
L 1.765625 45.015625 
L 1.765625 51.859375 
L 8.203125 51.859375 
L 8.203125 64.703125 
L 16.9375 69.96875 
L 16.9375 51.859375 
L 25.78125 51.859375 
L 25.78125 45.015625 
L 16.9375 45.015625 
L 16.9375 14.703125 
Q 16.9375 10.9375 17.40625 9.859375 
Q 17.875 8.796875 18.921875 8.15625 
Q 19.96875 7.515625 21.921875 7.515625 
Q 23.390625 7.515625 25.78125 7.859375 
z
" id="ArialMT-116"/>
      </defs>
      <g style="fill:#262626;" transform="translate(146.262244 269.373594)scale(0.11 -0.11)">
       <use xlink:href="#ArialMT-79"/>
       <use x="77.783203" xlink:href="#ArialMT-99"/>
       <use x="127.783203" xlink:href="#ArialMT-116"/>
      </g>
     </g>
    </g>
    <g id="xtick_3">
     <g id="line2d_3">
      <path clip-path="url(#pb2821497b8)" d="M 219.636364 252 
L 219.636364 34.56 
" style="fill:none;stroke:#ffffff;stroke-linecap:round;"/>
     </g>
     <g id="text_3">
      <!-- Jan -->
      <defs>
       <path d="M 40.4375 6.390625 
Q 35.546875 2.25 31.03125 0.53125 
Q 26.515625 -1.171875 21.34375 -1.171875 
Q 12.796875 -1.171875 8.203125 3 
Q 3.609375 7.171875 3.609375 13.671875 
Q 3.609375 17.484375 5.34375 20.625 
Q 7.078125 23.78125 9.890625 25.6875 
Q 12.703125 27.59375 16.21875 28.5625 
Q 18.796875 29.25 24.03125 29.890625 
Q 34.671875 31.15625 39.703125 32.90625 
Q 39.75 34.71875 39.75 35.203125 
Q 39.75 40.578125 37.25 42.78125 
Q 33.890625 45.75 27.25 45.75 
Q 21.046875 45.75 18.09375 43.578125 
Q 15.140625 41.40625 13.71875 35.890625 
L 5.125 37.0625 
Q 6.296875 42.578125 8.984375 45.96875 
Q 11.671875 49.359375 16.75 51.1875 
Q 21.828125 53.03125 28.515625 53.03125 
Q 35.15625 53.03125 39.296875 51.46875 
Q 43.453125 49.90625 45.40625 47.53125 
Q 47.359375 45.171875 48.140625 41.546875 
Q 48.578125 39.3125 48.578125 33.453125 
L 48.578125 21.734375 
Q 48.578125 9.46875 49.140625 6.21875 
Q 49.703125 2.984375 51.375 0 
L 42.1875 0 
Q 40.828125 2.734375 40.4375 6.390625 
z
M 39.703125 26.03125 
Q 34.90625 24.078125 25.34375 22.703125 
Q 19.921875 21.921875 17.671875 20.9375 
Q 15.4375 19.96875 14.203125 18.09375 
Q 12.984375 16.21875 12.984375 13.921875 
Q 12.984375 10.40625 15.640625 8.0625 
Q 18.3125 5.71875 23.4375 5.71875 
Q 28.515625 5.71875 32.46875 7.9375 
Q 36.421875 10.15625 38.28125 14.015625 
Q 39.703125 17 39.703125 22.796875 
z
" id="ArialMT-97"/>
       <path d="M 6.59375 0 
L 6.59375 51.859375 
L 14.5 51.859375 
L 14.5 44.484375 
Q 20.21875 53.03125 31 53.03125 
Q 35.6875 53.03125 39.625 51.34375 
Q 43.5625 49.65625 45.515625 46.921875 
Q 47.46875 44.1875 48.25 40.4375 
Q 48.734375 37.984375 48.734375 31.890625 
L 48.734375 0 
L 39.9375 0 
L 39.9375 31.546875 
Q 39.9375 36.921875 38.90625 39.578125 
Q 37.890625 42.234375 35.28125 43.8125 
Q 32.671875 45.40625 29.15625 45.40625 
Q 23.53125 45.40625 19.453125 41.84375 
Q 15.375 38.28125 15.375 28.328125 
L 15.375 0 
z
" id="ArialMT-110"/>
      </defs>
      <g style="fill:#262626;" transform="translate(210.769332 269.373594)scale(0.11 -0.11)">
       <use xlink:href="#ArialMT-74"/>
       <use x="50" xlink:href="#ArialMT-97"/>
       <use x="105.615234" xlink:href="#ArialMT-110"/>
      </g>
      <!-- 2016 -->
      <defs>
       <path d="M 50.34375 8.453125 
L 50.34375 0 
L 3.03125 0 
Q 2.9375 3.171875 4.046875 6.109375 
Q 5.859375 10.9375 9.828125 15.625 
Q 13.8125 20.3125 21.34375 26.46875 
Q 33.015625 36.03125 37.109375 41.625 
Q 41.21875 47.21875 41.21875 52.203125 
Q 41.21875 57.421875 37.46875 61 
Q 33.734375 64.59375 27.734375 64.59375 
Q 21.390625 64.59375 17.578125 60.78125 
Q 13.765625 56.984375 13.71875 50.25 
L 4.6875 51.171875 
Q 5.609375 61.28125 11.65625 66.578125 
Q 17.71875 71.875 27.9375 71.875 
Q 38.234375 71.875 44.234375 66.15625 
Q 50.25 60.453125 50.25 52 
Q 50.25 47.703125 48.484375 43.546875 
Q 46.734375 39.40625 42.65625 34.8125 
Q 38.578125 30.21875 29.109375 22.21875 
Q 21.1875 15.578125 18.9375 13.203125 
Q 16.703125 10.84375 15.234375 8.453125 
z
" id="ArialMT-50"/>
       <path d="M 4.15625 35.296875 
Q 4.15625 48 6.765625 55.734375 
Q 9.375 63.484375 14.515625 67.671875 
Q 19.671875 71.875 27.484375 71.875 
Q 33.25 71.875 37.59375 69.546875 
Q 41.9375 67.234375 44.765625 62.859375 
Q 47.609375 58.5 49.21875 52.21875 
Q 50.828125 45.953125 50.828125 35.296875 
Q 50.828125 22.703125 48.234375 14.96875 
Q 45.65625 7.234375 40.5 3 
Q 35.359375 -1.21875 27.484375 -1.21875 
Q 17.140625 -1.21875 11.234375 6.203125 
Q 4.15625 15.140625 4.15625 35.296875 
z
M 13.1875 35.296875 
Q 13.1875 17.671875 17.3125 11.828125 
Q 21.4375 6 27.484375 6 
Q 33.546875 6 37.671875 11.859375 
Q 41.796875 17.71875 41.796875 35.296875 
Q 41.796875 52.984375 37.671875 58.78125 
Q 33.546875 64.59375 27.390625 64.59375 
Q 21.34375 64.59375 17.71875 59.46875 
Q 13.1875 52.9375 13.1875 35.296875 
z
" id="ArialMT-48"/>
       <path d="M 37.25 0 
L 28.46875 0 
L 28.46875 56 
Q 25.296875 52.984375 20.140625 49.953125 
Q 14.984375 46.921875 10.890625 45.40625 
L 10.890625 53.90625 
Q 18.265625 57.375 23.78125 62.296875 
Q 29.296875 67.234375 31.59375 71.875 
L 37.25 71.875 
z
" id="ArialMT-49"/>
       <path d="M 49.75 54.046875 
L 41.015625 53.375 
Q 39.84375 58.546875 37.703125 60.890625 
Q 34.125 64.65625 28.90625 64.65625 
Q 24.703125 64.65625 21.53125 62.3125 
Q 17.390625 59.28125 14.984375 53.46875 
Q 12.59375 47.65625 12.5 36.921875 
Q 15.671875 41.75 20.265625 44.09375 
Q 24.859375 46.4375 29.890625 46.4375 
Q 38.671875 46.4375 44.84375 39.96875 
Q 51.03125 33.5 51.03125 23.25 
Q 51.03125 16.5 48.125 10.71875 
Q 45.21875 4.9375 40.140625 1.859375 
Q 35.0625 -1.21875 28.609375 -1.21875 
Q 17.625 -1.21875 10.6875 6.859375 
Q 3.765625 14.9375 3.765625 33.5 
Q 3.765625 54.25 11.421875 63.671875 
Q 18.109375 71.875 29.4375 71.875 
Q 37.890625 71.875 43.28125 67.140625 
Q 48.6875 62.40625 49.75 54.046875 
z
M 13.875 23.1875 
Q 13.875 18.65625 15.796875 14.5 
Q 17.71875 10.359375 21.1875 8.171875 
Q 24.65625 6 28.46875 6 
Q 34.03125 6 38.03125 10.484375 
Q 42.046875 14.984375 42.046875 22.703125 
Q 42.046875 30.125 38.078125 34.390625 
Q 34.125 38.671875 28.125 38.671875 
Q 22.171875 38.671875 18.015625 34.390625 
Q 13.875 30.125 13.875 23.1875 
z
" id="ArialMT-54"/>
      </defs>
      <g style="fill:#262626;" transform="translate(207.402301 281.008156)scale(0.11 -0.11)">
       <use xlink:href="#ArialMT-50"/>
       <use x="55.615234" xlink:href="#ArialMT-48"/>
       <use x="111.230469" xlink:href="#ArialMT-49"/>
       <use x="166.845703" xlink:href="#ArialMT-54"/>
      </g>
     </g>
    </g>
    <g id="xtick_4">
     <g id="line2d_4">
      <path clip-path="url(#pb2821497b8)" d="M 283.75 252 
L 283.75 34.56 
" style="fill:none;stroke:#ffffff;stroke-linecap:round;"/>
     </g>
     <g id="text_4">
      <!-- Apr -->
      <defs>
       <path d="M -0.140625 0 
L 27.34375 71.578125 
L 37.546875 71.578125 
L 66.84375 0 
L 56.0625 0 
L 47.703125 21.6875 
L 17.78125 21.6875 
L 9.90625 0 
z
M 20.515625 29.390625 
L 44.78125 29.390625 
L 37.3125 49.21875 
Q 33.890625 58.25 32.234375 64.0625 
Q 30.859375 57.171875 28.375 50.390625 
z
" id="ArialMT-65"/>
       <path d="M 6.59375 -19.875 
L 6.59375 51.859375 
L 14.59375 51.859375 
L 14.59375 45.125 
Q 17.4375 49.078125 21 51.046875 
Q 24.5625 53.03125 29.640625 53.03125 
Q 36.28125 53.03125 41.359375 49.609375 
Q 46.4375 46.1875 49.015625 39.953125 
Q 51.609375 33.734375 51.609375 26.3125 
Q 51.609375 18.359375 48.75 11.984375 
Q 45.90625 5.609375 40.453125 2.21875 
Q 35.015625 -1.171875 29 -1.171875 
Q 24.609375 -1.171875 21.109375 0.6875 
Q 17.625 2.546875 15.375 5.375 
L 15.375 -19.875 
z
M 14.546875 25.640625 
Q 14.546875 15.625 18.59375 10.84375 
Q 22.65625 6.0625 28.421875 6.0625 
Q 34.28125 6.0625 38.453125 11.015625 
Q 42.625 15.96875 42.625 26.375 
Q 42.625 36.28125 38.546875 41.203125 
Q 34.46875 46.140625 28.8125 46.140625 
Q 23.1875 46.140625 18.859375 40.890625 
Q 14.546875 35.640625 14.546875 25.640625 
z
" id="ArialMT-112"/>
       <path d="M 6.5 0 
L 6.5 51.859375 
L 14.40625 51.859375 
L 14.40625 44 
Q 17.4375 49.515625 20 51.265625 
Q 22.5625 53.03125 25.640625 53.03125 
Q 30.078125 53.03125 34.671875 50.203125 
L 31.640625 42.046875 
Q 28.421875 43.953125 25.203125 43.953125 
Q 22.3125 43.953125 20.015625 42.21875 
Q 17.71875 40.484375 16.75 37.40625 
Q 15.28125 32.71875 15.28125 27.15625 
L 15.28125 0 
z
" id="ArialMT-114"/>
      </defs>
      <g style="fill:#262626;" transform="translate(275.191484 269.373594)scale(0.11 -0.11)">
       <use xlink:href="#ArialMT-65"/>
       <use x="66.699219" xlink:href="#ArialMT-112"/>
       <use x="122.314453" xlink:href="#ArialMT-114"/>
      </g>
     </g>
    </g>
    <g id="xtick_5">
     <g id="line2d_5">
      <path clip-path="url(#pb2821497b8)" d="M 347.863636 252 
L 347.863636 34.56 
" style="fill:none;stroke:#ffffff;stroke-linecap:round;"/>
     </g>
     <g id="text_5">
      <!-- Jul -->
      <g style="fill:#262626;" transform="translate(340.833089 269.373594)scale(0.11 -0.11)">
       <use xlink:href="#ArialMT-74"/>
       <use x="50" xlink:href="#ArialMT-117"/>
       <use x="105.615234" xlink:href="#ArialMT-108"/>
      </g>
     </g>
    </g>
    <g id="xtick_6">
     <g id="line2d_6">
      <path clip-path="url(#pb2821497b8)" d="M 412.681818 252 
L 412.681818 34.56 
" style="fill:none;stroke:#ffffff;stroke-linecap:round;"/>
     </g>
     <g id="text_6">
      <!-- Oct -->
      <g style="fill:#262626;" transform="translate(404.125881 269.373594)scale(0.11 -0.11)">
       <use xlink:href="#ArialMT-79"/>
       <use x="77.783203" xlink:href="#ArialMT-99"/>
       <use x="127.783203" xlink:href="#ArialMT-116"/>
      </g>
     </g>
    </g>
    <g id="xtick_7">
     <g id="line2d_7">
      <path clip-path="url(#pb2821497b8)" d="M 477.5 252 
L 477.5 34.56 
" style="fill:none;stroke:#ffffff;stroke-linecap:round;"/>
     </g>
     <g id="text_7">
      <!-- Jan -->
      <g style="fill:#262626;" transform="translate(468.632969 269.373594)scale(0.11 -0.11)">
       <use xlink:href="#ArialMT-74"/>
       <use x="50" xlink:href="#ArialMT-97"/>
       <use x="105.615234" xlink:href="#ArialMT-110"/>
      </g>
      <!-- 2017 -->
      <defs>
       <path d="M 4.734375 62.203125 
L 4.734375 70.65625 
L 51.078125 70.65625 
L 51.078125 63.8125 
Q 44.234375 56.546875 37.515625 44.484375 
Q 30.8125 32.421875 27.15625 19.671875 
Q 24.515625 10.6875 23.78125 0 
L 14.75 0 
Q 14.890625 8.453125 18.0625 20.40625 
Q 21.234375 32.375 27.171875 43.484375 
Q 33.109375 54.59375 39.796875 62.203125 
z
" id="ArialMT-55"/>
      </defs>
      <g style="fill:#262626;" transform="translate(465.265937 281.008156)scale(0.11 -0.11)">
       <use xlink:href="#ArialMT-50"/>
       <use x="55.615234" xlink:href="#ArialMT-48"/>
       <use x="111.230469" xlink:href="#ArialMT-49"/>
       <use x="166.845703" xlink:href="#ArialMT-55"/>
      </g>
     </g>
    </g>
    <g id="xtick_8">
     <g id="line2d_8">
      <path clip-path="url(#pb2821497b8)" d="M 540.909091 252 
L 540.909091 34.56 
" style="fill:none;stroke:#ffffff;stroke-linecap:round;"/>
     </g>
     <g id="text_8">
      <!-- Apr -->
      <g style="fill:#262626;" transform="translate(532.350575 269.373594)scale(0.11 -0.11)">
       <use xlink:href="#ArialMT-65"/>
       <use x="66.699219" xlink:href="#ArialMT-112"/>
       <use x="122.314453" xlink:href="#ArialMT-114"/>
      </g>
     </g>
    </g>
    <g id="xtick_9">
     <g id="line2d_9">
      <path clip-path="url(#pb2821497b8)" d="M 605.022727 252 
L 605.022727 34.56 
" style="fill:none;stroke:#ffffff;stroke-linecap:round;"/>
     </g>
     <g id="text_9">
      <!-- Jul -->
      <g style="fill:#262626;" transform="translate(597.99218 269.373594)scale(0.11 -0.11)">
       <use xlink:href="#ArialMT-74"/>
       <use x="50" xlink:href="#ArialMT-117"/>
       <use x="105.615234" xlink:href="#ArialMT-108"/>
      </g>
     </g>
    </g>
    <g id="xtick_10">
     <g id="line2d_10">
      <path clip-path="url(#pb2821497b8)" d="M 648 252 
L 648 34.56 
" style="fill:none;stroke:#ffffff;stroke-linecap:round;"/>
     </g>
    </g>
    <g id="xtick_11"/>
    <g id="xtick_12"/>
    <g id="xtick_13"/>
    <g id="xtick_14"/>
    <g id="xtick_15"/>
    <g id="xtick_16"/>
    <g id="xtick_17"/>
    <g id="xtick_18"/>
    <g id="xtick_19"/>
    <g id="xtick_20"/>
    <g id="xtick_21"/>
    <g id="xtick_22"/>
    <g id="xtick_23"/>
    <g id="xtick_24"/>
    <g id="xtick_25"/>
    <g id="xtick_26"/>
    <g id="xtick_27"/>
    <g id="text_10">
     <!-- Customer Arrival Date -->
     <defs>
      <path d="M 58.796875 25.09375 
L 68.265625 22.703125 
Q 65.28125 11.03125 57.546875 4.90625 
Q 49.8125 -1.21875 38.625 -1.21875 
Q 27.046875 -1.21875 19.796875 3.484375 
Q 12.546875 8.203125 8.765625 17.140625 
Q 4.984375 26.078125 4.984375 36.328125 
Q 4.984375 47.515625 9.25 55.828125 
Q 13.53125 64.15625 21.40625 68.46875 
Q 29.296875 72.796875 38.765625 72.796875 
Q 49.515625 72.796875 56.828125 67.328125 
Q 64.15625 61.859375 67.046875 51.953125 
L 57.71875 49.75 
Q 55.21875 57.5625 50.484375 61.125 
Q 45.75 64.703125 38.578125 64.703125 
Q 30.328125 64.703125 24.78125 60.734375 
Q 19.234375 56.78125 16.984375 50.109375 
Q 14.75 43.453125 14.75 36.375 
Q 14.75 27.25 17.40625 20.4375 
Q 20.0625 13.625 25.671875 10.25 
Q 31.296875 6.890625 37.84375 6.890625 
Q 45.796875 6.890625 51.3125 11.46875 
Q 56.84375 16.0625 58.796875 25.09375 
z
" id="ArialMT-67"/>
      <path d="M 3.078125 15.484375 
L 11.765625 16.84375 
Q 12.5 11.625 15.84375 8.84375 
Q 19.1875 6.0625 25.203125 6.0625 
Q 31.25 6.0625 34.171875 8.515625 
Q 37.109375 10.984375 37.109375 14.3125 
Q 37.109375 17.28125 34.515625 19 
Q 32.71875 20.171875 25.53125 21.96875 
Q 15.875 24.421875 12.140625 26.203125 
Q 8.40625 27.984375 6.46875 31.125 
Q 4.546875 34.28125 4.546875 38.09375 
Q 4.546875 41.546875 6.125 44.5 
Q 7.71875 47.46875 10.453125 49.421875 
Q 12.5 50.921875 16.03125 51.96875 
Q 19.578125 53.03125 23.640625 53.03125 
Q 29.734375 53.03125 34.34375 51.265625 
Q 38.96875 49.515625 41.15625 46.5 
Q 43.359375 43.5 44.1875 38.484375 
L 35.59375 37.3125 
Q 35.015625 41.3125 32.203125 43.546875 
Q 29.390625 45.796875 24.265625 45.796875 
Q 18.21875 45.796875 15.625 43.796875 
Q 13.03125 41.796875 13.03125 39.109375 
Q 13.03125 37.40625 14.109375 36.03125 
Q 15.1875 34.625 17.484375 33.6875 
Q 18.796875 33.203125 25.25 31.453125 
Q 34.578125 28.953125 38.25 27.359375 
Q 41.9375 25.78125 44.03125 22.75 
Q 46.140625 19.734375 46.140625 15.234375 
Q 46.140625 10.84375 43.578125 6.953125 
Q 41.015625 3.078125 36.171875 0.953125 
Q 31.34375 -1.171875 25.25 -1.171875 
Q 15.140625 -1.171875 9.84375 3.03125 
Q 4.546875 7.234375 3.078125 15.484375 
z
" id="ArialMT-115"/>
      <path d="M 3.328125 25.921875 
Q 3.328125 40.328125 11.328125 47.265625 
Q 18.015625 53.03125 27.640625 53.03125 
Q 38.328125 53.03125 45.109375 46.015625 
Q 51.90625 39.015625 51.90625 26.65625 
Q 51.90625 16.65625 48.90625 10.90625 
Q 45.90625 5.171875 40.15625 2 
Q 34.421875 -1.171875 27.640625 -1.171875 
Q 16.75 -1.171875 10.03125 5.8125 
Q 3.328125 12.796875 3.328125 25.921875 
z
M 12.359375 25.921875 
Q 12.359375 15.96875 16.703125 11.015625 
Q 21.046875 6.0625 27.640625 6.0625 
Q 34.1875 6.0625 38.53125 11.03125 
Q 42.875 16.015625 42.875 26.21875 
Q 42.875 35.84375 38.5 40.796875 
Q 34.125 45.75 27.640625 45.75 
Q 21.046875 45.75 16.703125 40.8125 
Q 12.359375 35.890625 12.359375 25.921875 
z
" id="ArialMT-111"/>
      <path d="M 6.59375 0 
L 6.59375 51.859375 
L 14.453125 51.859375 
L 14.453125 44.578125 
Q 16.890625 48.390625 20.9375 50.703125 
Q 25 53.03125 30.171875 53.03125 
Q 35.9375 53.03125 39.625 50.640625 
Q 43.3125 48.25 44.828125 43.953125 
Q 50.984375 53.03125 60.84375 53.03125 
Q 68.5625 53.03125 72.703125 48.75 
Q 76.859375 44.484375 76.859375 35.59375 
L 76.859375 0 
L 68.109375 0 
L 68.109375 32.671875 
Q 68.109375 37.9375 67.25 40.25 
Q 66.40625 42.578125 64.15625 43.984375 
Q 61.921875 45.40625 58.890625 45.40625 
Q 53.421875 45.40625 49.796875 41.765625 
Q 46.1875 38.140625 46.1875 30.125 
L 46.1875 0 
L 37.40625 0 
L 37.40625 33.6875 
Q 37.40625 39.546875 35.25 42.46875 
Q 33.109375 45.40625 28.21875 45.40625 
Q 24.515625 45.40625 21.359375 43.453125 
Q 18.21875 41.5 16.796875 37.734375 
Q 15.375 33.984375 15.375 26.90625 
L 15.375 0 
z
" id="ArialMT-109"/>
      <path d="M 42.09375 16.703125 
L 51.171875 15.578125 
Q 49.03125 7.625 43.21875 3.21875 
Q 37.40625 -1.171875 28.375 -1.171875 
Q 17 -1.171875 10.328125 5.828125 
Q 3.65625 12.84375 3.65625 25.484375 
Q 3.65625 38.578125 10.390625 45.796875 
Q 17.140625 53.03125 27.875 53.03125 
Q 38.28125 53.03125 44.875 45.953125 
Q 51.46875 38.875 51.46875 26.03125 
Q 51.46875 25.25 51.421875 23.6875 
L 12.75 23.6875 
Q 13.234375 15.140625 17.578125 10.59375 
Q 21.921875 6.0625 28.421875 6.0625 
Q 33.25 6.0625 36.671875 8.59375 
Q 40.09375 11.140625 42.09375 16.703125 
z
M 13.234375 30.90625 
L 42.1875 30.90625 
Q 41.609375 37.453125 38.875 40.71875 
Q 34.671875 45.796875 27.984375 45.796875 
Q 21.921875 45.796875 17.796875 41.75 
Q 13.671875 37.703125 13.234375 30.90625 
z
" id="ArialMT-101"/>
      <path id="ArialMT-32"/>
      <path d="M 6.640625 61.46875 
L 6.640625 71.578125 
L 15.4375 71.578125 
L 15.4375 61.46875 
z
M 6.640625 0 
L 6.640625 51.859375 
L 15.4375 51.859375 
L 15.4375 0 
z
" id="ArialMT-105"/>
      <path d="M 21 0 
L 1.265625 51.859375 
L 10.546875 51.859375 
L 21.6875 20.796875 
Q 23.484375 15.765625 25 10.359375 
Q 26.171875 14.453125 28.265625 20.21875 
L 39.796875 51.859375 
L 48.828125 51.859375 
L 29.203125 0 
z
" id="ArialMT-118"/>
      <path d="M 7.71875 0 
L 7.71875 71.578125 
L 32.375 71.578125 
Q 40.71875 71.578125 45.125 70.5625 
Q 51.265625 69.140625 55.609375 65.4375 
Q 61.28125 60.640625 64.078125 53.1875 
Q 66.890625 45.75 66.890625 36.1875 
Q 66.890625 28.03125 64.984375 21.734375 
Q 63.09375 15.4375 60.109375 11.296875 
Q 57.125 7.171875 53.578125 4.796875 
Q 50.046875 2.4375 45.046875 1.21875 
Q 40.046875 0 33.546875 0 
z
M 17.1875 8.453125 
L 32.46875 8.453125 
Q 39.546875 8.453125 43.578125 9.765625 
Q 47.609375 11.078125 50 13.484375 
Q 53.375 16.84375 55.25 22.53125 
Q 57.125 28.21875 57.125 36.328125 
Q 57.125 47.5625 53.4375 53.59375 
Q 49.75 59.625 44.484375 61.671875 
Q 40.671875 63.140625 32.234375 63.140625 
L 17.1875 63.140625 
z
" id="ArialMT-68"/>
     </defs>
     <g style="fill:#262626;" transform="translate(309.991875 295.783781)scale(0.12 -0.12)">
      <use xlink:href="#ArialMT-67"/>
      <use x="72.216797" xlink:href="#ArialMT-117"/>
      <use x="127.832031" xlink:href="#ArialMT-115"/>
      <use x="177.832031" xlink:href="#ArialMT-116"/>
      <use x="205.615234" xlink:href="#ArialMT-111"/>
      <use x="261.230469" xlink:href="#ArialMT-109"/>
      <use x="344.53125" xlink:href="#ArialMT-101"/>
      <use x="400.146484" xlink:href="#ArialMT-114"/>
      <use x="433.447266" xlink:href="#ArialMT-32"/>
      <use x="461.152344" xlink:href="#ArialMT-65"/>
      <use x="527.851562" xlink:href="#ArialMT-114"/>
      <use x="561.152344" xlink:href="#ArialMT-114"/>
      <use x="594.453125" xlink:href="#ArialMT-105"/>
      <use x="616.669922" xlink:href="#ArialMT-118"/>
      <use x="666.669922" xlink:href="#ArialMT-97"/>
      <use x="722.285156" xlink:href="#ArialMT-108"/>
      <use x="744.501953" xlink:href="#ArialMT-32"/>
      <use x="772.285156" xlink:href="#ArialMT-68"/>
      <use x="844.501953" xlink:href="#ArialMT-97"/>
      <use x="900.117188" xlink:href="#ArialMT-116"/>
      <use x="927.900391" xlink:href="#ArialMT-101"/>
     </g>
    </g>
   </g>
   <g id="matplotlib.axis_2">
    <g id="ytick_1">
     <g id="line2d_11">
      <path clip-path="url(#pb2821497b8)" d="M 90 223.399212 
L 648 223.399212 
" style="fill:none;stroke:#ffffff;stroke-linecap:round;"/>
     </g>
     <g id="text_11">
      <!-- 50 -->
      <defs>
       <path d="M 4.15625 18.75 
L 13.375 19.53125 
Q 14.40625 12.796875 18.140625 9.390625 
Q 21.875 6 27.15625 6 
Q 33.5 6 37.890625 10.78125 
Q 42.28125 15.578125 42.28125 23.484375 
Q 42.28125 31 38.0625 35.34375 
Q 33.84375 39.703125 27 39.703125 
Q 22.75 39.703125 19.328125 37.765625 
Q 15.921875 35.84375 13.96875 32.765625 
L 5.71875 33.84375 
L 12.640625 70.609375 
L 48.25 70.609375 
L 48.25 62.203125 
L 19.671875 62.203125 
L 15.828125 42.96875 
Q 22.265625 47.46875 29.34375 47.46875 
Q 38.71875 47.46875 45.15625 40.96875 
Q 51.609375 34.46875 51.609375 24.265625 
Q 51.609375 14.546875 45.953125 7.46875 
Q 39.0625 -1.21875 27.15625 -1.21875 
Q 17.390625 -1.21875 11.203125 4.25 
Q 5.03125 9.71875 4.15625 18.75 
z
" id="ArialMT-53"/>
      </defs>
      <g style="fill:#262626;" transform="translate(68.265938 227.336009)scale(0.11 -0.11)">
       <use xlink:href="#ArialMT-53"/>
       <use x="55.615234" xlink:href="#ArialMT-48"/>
      </g>
     </g>
    </g>
    <g id="ytick_2">
     <g id="line2d_12">
      <path clip-path="url(#pb2821497b8)" d="M 90 176.168375 
L 648 176.168375 
" style="fill:none;stroke:#ffffff;stroke-linecap:round;"/>
     </g>
     <g id="text_12">
      <!-- 100 -->
      <g style="fill:#262626;" transform="translate(62.148906 180.105172)scale(0.11 -0.11)">
       <use xlink:href="#ArialMT-49"/>
       <use x="55.615234" xlink:href="#ArialMT-48"/>
       <use x="111.230469" xlink:href="#ArialMT-48"/>
      </g>
     </g>
    </g>
    <g id="ytick_3">
     <g id="line2d_13">
      <path clip-path="url(#pb2821497b8)" d="M 90 128.937538 
L 648 128.937538 
" style="fill:none;stroke:#ffffff;stroke-linecap:round;"/>
     </g>
     <g id="text_13">
      <!-- 150 -->
      <g style="fill:#262626;" transform="translate(62.148906 132.874335)scale(0.11 -0.11)">
       <use xlink:href="#ArialMT-49"/>
       <use x="55.615234" xlink:href="#ArialMT-53"/>
       <use x="111.230469" xlink:href="#ArialMT-48"/>
      </g>
     </g>
    </g>
    <g id="ytick_4">
     <g id="line2d_14">
      <path clip-path="url(#pb2821497b8)" d="M 90 81.706701 
L 648 81.706701 
" style="fill:none;stroke:#ffffff;stroke-linecap:round;"/>
     </g>
     <g id="text_14">
      <!-- 200 -->
      <g style="fill:#262626;" transform="translate(62.148906 85.643497)scale(0.11 -0.11)">
       <use xlink:href="#ArialMT-50"/>
       <use x="55.615234" xlink:href="#ArialMT-48"/>
       <use x="111.230469" xlink:href="#ArialMT-48"/>
      </g>
     </g>
    </g>
    <g id="text_15">
     <!-- Average Daily Rate -->
     <defs>
      <path d="M 4.984375 -4.296875 
L 13.53125 -5.5625 
Q 14.0625 -9.515625 16.5 -11.328125 
Q 19.78125 -13.765625 25.4375 -13.765625 
Q 31.546875 -13.765625 34.859375 -11.328125 
Q 38.1875 -8.890625 39.359375 -4.5 
Q 40.046875 -1.8125 39.984375 6.78125 
Q 34.234375 0 25.640625 0 
Q 14.9375 0 9.078125 7.71875 
Q 3.21875 15.4375 3.21875 26.21875 
Q 3.21875 33.640625 5.90625 39.90625 
Q 8.59375 46.1875 13.6875 49.609375 
Q 18.796875 53.03125 25.6875 53.03125 
Q 34.859375 53.03125 40.828125 45.609375 
L 40.828125 51.859375 
L 48.921875 51.859375 
L 48.921875 7.03125 
Q 48.921875 -5.078125 46.453125 -10.125 
Q 44 -15.1875 38.640625 -18.109375 
Q 33.296875 -21.046875 25.484375 -21.046875 
Q 16.21875 -21.046875 10.5 -16.875 
Q 4.78125 -12.703125 4.984375 -4.296875 
z
M 12.25 26.859375 
Q 12.25 16.65625 16.296875 11.96875 
Q 20.359375 7.28125 26.46875 7.28125 
Q 32.515625 7.28125 36.609375 11.9375 
Q 40.71875 16.609375 40.71875 26.5625 
Q 40.71875 36.078125 36.5 40.90625 
Q 32.28125 45.75 26.3125 45.75 
Q 20.453125 45.75 16.34375 40.984375 
Q 12.25 36.234375 12.25 26.859375 
z
" id="ArialMT-103"/>
      <path d="M 6.203125 -19.96875 
L 5.21875 -11.71875 
Q 8.109375 -12.5 10.25 -12.5 
Q 13.1875 -12.5 14.9375 -11.515625 
Q 16.703125 -10.546875 17.828125 -8.796875 
Q 18.65625 -7.46875 20.515625 -2.25 
Q 20.75 -1.515625 21.296875 -0.09375 
L 1.609375 51.859375 
L 11.078125 51.859375 
L 21.875 21.828125 
Q 23.96875 16.109375 25.640625 9.8125 
Q 27.15625 15.875 29.25 21.625 
L 40.328125 51.859375 
L 49.125 51.859375 
L 29.390625 -0.875 
Q 26.21875 -9.421875 24.46875 -12.640625 
Q 22.125 -17 19.09375 -19.015625 
Q 16.0625 -21.046875 11.859375 -21.046875 
Q 9.328125 -21.046875 6.203125 -19.96875 
z
" id="ArialMT-121"/>
      <path d="M 7.859375 0 
L 7.859375 71.578125 
L 39.59375 71.578125 
Q 49.171875 71.578125 54.140625 69.640625 
Q 59.125 67.71875 62.109375 62.828125 
Q 65.09375 57.953125 65.09375 52.046875 
Q 65.09375 44.4375 60.15625 39.203125 
Q 55.21875 33.984375 44.921875 32.5625 
Q 48.6875 30.765625 50.640625 29 
Q 54.78125 25.203125 58.5 19.484375 
L 70.953125 0 
L 59.03125 0 
L 49.5625 14.890625 
Q 45.40625 21.34375 42.71875 24.75 
Q 40.046875 28.171875 37.921875 29.53125 
Q 35.796875 30.90625 33.59375 31.453125 
Q 31.984375 31.78125 28.328125 31.78125 
L 17.328125 31.78125 
L 17.328125 0 
z
M 17.328125 39.984375 
L 37.703125 39.984375 
Q 44.1875 39.984375 47.84375 41.328125 
Q 51.515625 42.671875 53.421875 45.625 
Q 55.328125 48.578125 55.328125 52.046875 
Q 55.328125 57.125 51.640625 60.390625 
Q 47.953125 63.671875 39.984375 63.671875 
L 17.328125 63.671875 
z
" id="ArialMT-82"/>
     </defs>
     <g style="fill:#262626;" transform="translate(55.623281 194.968125)rotate(-90)scale(0.12 -0.12)">
      <use xlink:href="#ArialMT-65"/>
      <use x="66.683594" xlink:href="#ArialMT-118"/>
      <use x="116.683594" xlink:href="#ArialMT-101"/>
      <use x="172.298828" xlink:href="#ArialMT-114"/>
      <use x="205.599609" xlink:href="#ArialMT-97"/>
      <use x="261.214844" xlink:href="#ArialMT-103"/>
      <use x="316.830078" xlink:href="#ArialMT-101"/>
      <use x="372.445312" xlink:href="#ArialMT-32"/>
      <use x="400.228516" xlink:href="#ArialMT-68"/>
      <use x="472.445312" xlink:href="#ArialMT-97"/>
      <use x="528.060547" xlink:href="#ArialMT-105"/>
      <use x="550.277344" xlink:href="#ArialMT-108"/>
      <use x="572.494141" xlink:href="#ArialMT-121"/>
      <use x="622.494141" xlink:href="#ArialMT-32"/>
      <use x="650.277344" xlink:href="#ArialMT-82"/>
      <use x="722.494141" xlink:href="#ArialMT-97"/>
      <use x="778.109375" xlink:href="#ArialMT-116"/>
      <use x="805.892578" xlink:href="#ArialMT-101"/>
     </g>
    </g>
   </g>
   <g id="line2d_15">
    <path clip-path="url(#pb2821497b8)" d="M 90 185.337089 
L 90.704545 174.301898 
L 91.409091 170.058358 
L 92.113636 174.482423 
L 92.818182 170.53762 
L 94.227273 169.55039 
L 94.931818 171.943007 
L 95.636364 173.405649 
L 96.340909 156.713993 
L 97.045455 154.951822 
L 97.75 155.240916 
L 98.454545 160.273439 
L 99.159091 158.779284 
L 99.863636 153.274958 
L 100.568182 145.536634 
L 101.272727 146.060606 
L 101.977273 130.129687 
L 102.681818 148.024625 
L 103.386364 138.784309 
L 104.090909 146.542242 
L 104.795455 134.64157 
L 105.5 133.209706 
L 106.204545 126.357408 
L 106.909091 139.124113 
L 107.613636 141.47744 
L 108.318182 135.500186 
L 109.022727 143.702685 
L 109.727273 139.595878 
L 110.431818 138.449828 
L 111.136364 136.145121 
L 111.840909 114.208318 
L 112.545455 127.327825 
L 113.25 128.896706 
L 113.954545 125.150351 
L 114.659091 130.834818 
L 115.363636 112.245301 
L 116.068182 120.556944 
L 116.772727 110.32841 
L 117.477273 114.578848 
L 118.181818 114.875891 
L 118.886364 129.141386 
L 119.590909 111.882482 
L 120.295455 105.714518 
L 121 105.526156 
L 121.704545 118.177065 
L 122.409091 116.553749 
L 123.113636 124.742777 
L 123.818182 109.353114 
L 124.522727 112.035895 
L 125.227273 140.861102 
L 125.931818 104.184967 
L 126.636364 117.263235 
L 127.340909 113.831481 
L 128.045455 111.584543 
L 128.75 125.727272 
L 129.454545 143.846847 
L 130.159091 157.406904 
L 130.863636 139.55503 
L 131.568182 148.292378 
L 132.272727 150.511115 
L 132.977273 160.710397 
L 133.681818 163.11881 
L 134.386364 214.00847 
L 135.090909 193.128159 
L 135.795455 162.366434 
L 136.5 168.574582 
L 137.204545 163.184455 
L 137.909091 169.487814 
L 138.613636 178.931904 
L 139.318182 168.598661 
L 140.022727 188.092519 
L 140.727273 166.359532 
L 141.431818 213.224868 
L 142.136364 185.560728 
L 142.840909 185.212096 
L 143.545455 210.298428 
L 144.25 191.596287 
L 144.954545 220.352015 
L 145.659091 183.383293 
L 146.363636 196.557235 
L 147.068182 196.875074 
L 147.772727 196.070287 
L 148.477273 181.459223 
L 149.181818 196.497652 
L 149.886364 206.141631 
L 150.590909 188.907806 
L 151.295455 211.14368 
L 152 201.834831 
L 152.704545 206.843439 
L 153.409091 203.83539 
L 154.113636 210.557511 
L 154.818182 204.990829 
L 155.522727 208.701566 
L 156.227273 223.013787 
L 156.931818 217.570045 
L 157.636364 204.38985 
L 158.340909 214.796784 
L 159.045455 220.007752 
L 159.75 214.743729 
L 160.454545 199.315706 
L 161.159091 213.040692 
L 161.863636 213.81992 
L 162.568182 218.703348 
L 163.272727 216.066827 
L 163.977273 224.977183 
L 164.681818 227.592193 
L 165.386364 223.863846 
L 166.090909 202.699511 
L 166.795455 215.87747 
L 167.5 213.762791 
L 168.204545 212.772904 
L 168.909091 218.245518 
L 169.613636 216.979597 
L 170.318182 214.056953 
L 171.022727 220.79425 
L 171.727273 220.668679 
L 172.431818 230.646194 
L 173.136364 224.760051 
L 173.840909 222.769325 
L 174.545455 229.326053 
L 175.25 224.953107 
L 175.954545 231.348337 
L 176.659091 227.987118 
L 177.363636 229.609595 
L 178.068182 232.04869 
L 178.772727 233.294597 
L 179.477273 222.378082 
L 180.181818 221.584272 
L 180.886364 225.50392 
L 181.590909 219.977928 
L 182.295455 225.529498 
L 183 218.826446 
L 183.704545 224.920495 
L 184.409091 225.688963 
L 185.113636 212.778571 
L 185.818182 210.860713 
L 186.522727 227.022132 
L 187.227273 234.67777 
L 187.931818 230.327082 
L 188.636364 220.55263 
L 189.340909 226.883161 
L 190.045455 219.153549 
L 190.75 231.250683 
L 191.454545 226.957511 
L 192.159091 235.300774 
L 192.863636 232.253845 
L 193.568182 236.974983 
L 194.272727 234.108805 
L 194.977273 228.714828 
L 195.681818 225.689332 
L 196.386364 231.777963 
L 197.090909 232.921894 
L 197.795455 234.358026 
L 198.5 233.248596 
L 199.204545 229.801116 
L 199.909091 225.589247 
L 200.613636 210.879679 
L 201.318182 219.784904 
L 202.022727 225.216475 
L 202.727273 236.249374 
L 203.431818 234.625839 
L 204.136364 242.116364 
L 204.840909 238.492417 
L 205.545455 217.41664 
L 206.25 234.550413 
L 206.954545 237.996942 
L 207.659091 233.46716 
L 208.363636 233.771104 
L 209.068182 232.163366 
L 209.772727 232.334657 
L 210.477273 209.341524 
L 211.181818 228.025866 
L 211.886364 226.225683 
L 212.590909 220.144775 
L 213.295455 210.442757 
L 214 212.75523 
L 214.704545 219.430641 
L 215.409091 213.957768 
L 216.113636 215.898471 
L 216.818182 217.364185 
L 217.522727 182.765433 
L 218.227273 135.163421 
L 218.931818 147.044609 
L 219.636364 196.032406 
L 220.340909 206.746564 
L 221.045455 227.857077 
L 221.75 221.492804 
L 222.454545 229.694516 
L 223.159091 223.97344 
L 223.863636 225.504527 
L 224.568182 227.862526 
L 225.272727 226.176941 
L 225.977273 233.12782 
L 226.681818 232.334677 
L 227.386364 232.265773 
L 228.090909 237.694727 
L 228.795455 232.419417 
L 229.5 222.886543 
L 230.204545 223.704421 
L 230.909091 219.277534 
L 231.613636 235.079989 
L 232.318182 235.221091 
L 233.022727 233.42317 
L 233.727273 230.026062 
L 234.431818 225.082083 
L 235.136364 223.138294 
L 235.840909 231.091091 
L 236.545455 230.110189 
L 237.25 236.895021 
L 237.954545 230.52334 
L 239.363636 221.492976 
L 240.068182 225.012258 
L 240.772727 222.138512 
L 241.477273 232.316681 
L 242.181818 232.235974 
L 242.886364 231.077002 
L 243.590909 229.249539 
L 245 211.268671 
L 245.704545 206.911929 
L 246.409091 221.41961 
L 247.113636 227.574643 
L 247.818182 225.463657 
L 248.522727 228.706699 
L 249.227273 211.648774 
L 249.931818 209.269788 
L 250.636364 209.15923 
L 251.340909 229.103421 
L 252.045455 230.843558 
L 252.75 224.714283 
L 253.454545 217.39601 
L 254.159091 216.569633 
L 254.863636 218.325721 
L 255.568182 217.175959 
L 256.272727 230.641632 
L 256.977273 231.439588 
L 257.681818 230.558493 
L 258.386364 228.6122 
L 259.090909 208.884501 
L 259.795455 215.251205 
L 260.5 223.312685 
L 261.204545 226.798783 
L 261.909091 219.302025 
L 262.613636 226.56091 
L 263.318182 229.247249 
L 264.022727 220.163725 
L 264.727273 215.985753 
L 265.431818 221.485314 
L 266.136364 223.59017 
L 266.840909 233.504465 
L 267.545455 210.768436 
L 268.954545 232.953486 
L 269.659091 225.017706 
L 270.363636 221.022774 
L 271.068182 228.517111 
L 271.772727 230.201543 
L 272.477273 233.086546 
L 273.181818 231.519324 
L 273.886364 220.452564 
L 274.590909 216.726585 
L 275.295455 211.144975 
L 276 221.01064 
L 276.704545 215.074822 
L 277.409091 200.994055 
L 278.818182 187.398189 
L 279.522727 190.443177 
L 280.227273 210.283309 
L 280.931818 214.229008 
L 281.636364 221.766705 
L 282.340909 217.51541 
L 283.75 202.108372 
L 284.454545 197.397314 
L 285.159091 197.097371 
L 286.568182 214.264993 
L 287.272727 214.903369 
L 287.977273 210.849764 
L 288.681818 212.291341 
L 289.386364 216.555343 
L 290.090909 208.052536 
L 290.795455 210.769806 
L 291.5 203.369071 
L 292.204545 206.155979 
L 292.909091 204.728735 
L 293.613636 200.219203 
L 294.318182 203.152616 
L 295.022727 209.647797 
L 295.727273 205.22802 
L 296.431818 211.514674 
L 297.136364 210.724388 
L 297.840909 208.410349 
L 298.545455 198.820596 
L 299.25 196.134281 
L 299.954545 198.014526 
L 301.363636 214.77767 
L 302.068182 202.266069 
L 302.772727 202.459578 
L 303.477273 206.545554 
L 304.181818 196.301307 
L 304.886364 203.287177 
L 305.590909 198.6612 
L 306.295455 210.052064 
L 307 199.182925 
L 307.704545 214.058808 
L 308.409091 204.245323 
L 309.113636 201.262434 
L 309.818182 206.012124 
L 311.227273 212.01318 
L 311.931818 200.869109 
L 312.636364 214.943192 
L 313.340909 192.22686 
L 314.045455 199.004606 
L 314.75 202.940316 
L 315.454545 201.076374 
L 316.159091 216.196052 
L 316.863636 210.096718 
L 317.568182 201.835553 
L 318.272727 189.589313 
L 319.681818 203.511724 
L 320.386364 204.12555 
L 321.090909 207.315088 
L 321.795455 197.366924 
L 322.5 202.881855 
L 323.204545 199.067302 
L 323.909091 194.248942 
L 324.613636 193.704291 
L 325.318182 195.743817 
L 326.022727 191.729991 
L 326.727273 184.394181 
L 327.431818 185.622977 
L 328.136364 173.9508 
L 328.840909 181.486348 
L 329.545455 171.419652 
L 330.25 178.912005 
L 330.954545 171.741901 
L 331.659091 176.471702 
L 332.363636 175.969521 
L 333.068182 151.903645 
L 333.772727 182.902221 
L 334.477273 159.260333 
L 335.181818 176.833027 
L 335.886364 187.881948 
L 336.590909 182.263042 
L 337.295455 155.127675 
L 338 165.469572 
L 338.704545 174.046311 
L 339.409091 177.649992 
L 340.113636 189.21983 
L 340.818182 187.903821 
L 341.522727 185.203902 
L 342.227273 190.747929 
L 342.931818 172.596824 
L 343.636364 146.211729 
L 344.340909 168.379176 
L 345.045455 180.972395 
L 345.75 185.165715 
L 346.454545 183.675592 
L 347.159091 159.249911 
L 347.863636 158.599684 
L 348.568182 167.076789 
L 349.272727 158.423606 
L 349.977273 158.82791 
L 350.681818 143.262786 
L 351.386364 148.883514 
L 352.090909 145.831603 
L 352.795455 129.506025 
L 353.5 150.026296 
L 354.204545 150.522345 
L 354.909091 134.746091 
L 355.613636 150.351999 
L 356.318182 116.577902 
L 357.022727 117.582218 
L 357.727273 116.40578 
L 358.431818 117.769019 
L 359.136364 96.830756 
L 359.840909 113.945273 
L 360.545455 120.12196 
L 361.25 140.50126 
L 361.954545 111.655864 
L 362.659091 113.440689 
L 363.363636 102.653795 
L 364.068182 123.40806 
L 365.477273 102.081814 
L 366.181818 106.571172 
L 366.886364 96.139233 
L 367.590909 92.362877 
L 369 103.722753 
L 369.704545 107.191505 
L 370.409091 91.636134 
L 371.113636 91.57401 
L 371.818182 82.541668 
L 372.522727 67.274468 
L 373.227273 83.803565 
L 373.931818 74.066325 
L 374.636364 86.740513 
L 375.340909 77.618872 
L 376.045455 83.35284 
L 376.75 71.322443 
L 377.454545 73.346995 
L 378.159091 76.034277 
L 378.863636 77.643411 
L 379.568182 88.168998 
L 380.272727 76.809625 
L 380.977273 70.10009 
L 381.681818 76.654477 
L 382.386364 91.390718 
L 383.090909 77.753409 
L 383.795455 101.30797 
L 384.5 76.000166 
L 385.204545 97.460422 
L 385.909091 89.850063 
L 386.613636 112.699174 
L 387.318182 95.73156 
L 388.022727 115.328415 
L 388.727273 102.929405 
L 389.431818 136.150144 
L 390.136364 122.789621 
L 390.840909 141.679652 
L 391.545455 152.842686 
L 392.25 144.486773 
L 393.659091 147.86506 
L 394.363636 151.044833 
L 395.068182 144.046289 
L 395.772727 174.701618 
L 396.477273 142.211765 
L 397.181818 154.109261 
L 397.886364 158.03075 
L 398.590909 149.589303 
L 399.295455 158.776709 
L 400 162.827148 
L 400.704545 192.768056 
L 401.409091 195.598579 
L 402.113636 162.302378 
L 402.818182 151.543266 
L 403.522727 183.786509 
L 404.227273 179.407665 
L 404.931818 189.097173 
L 405.636364 194.127134 
L 406.340909 179.93651 
L 407.045455 153.836347 
L 407.75 157.325632 
L 408.454545 189.75527 
L 409.159091 187.691617 
L 409.863636 172.477622 
L 410.568182 178.781528 
L 411.272727 194.972259 
L 411.977273 179.004831 
L 412.681818 195.056092 
L 413.386364 192.5645 
L 414.090909 189.273232 
L 414.795455 190.960843 
L 415.5 197.710649 
L 416.204545 215.734365 
L 416.909091 185.590927 
L 417.613636 201.901489 
L 418.318182 214.482194 
L 419.022727 213.749146 
L 419.727273 209.280078 
L 420.431818 206.988386 
L 421.136364 201.717252 
L 421.840909 206.493595 
L 422.545455 190.969732 
L 423.25 207.483858 
L 423.954545 211.72999 
L 424.659091 209.829047 
L 425.363636 209.662168 
L 426.068182 218.486471 
L 426.772727 192.729739 
L 427.477273 195.879276 
L 428.181818 216.307382 
L 428.886364 212.770986 
L 429.590909 206.052632 
L 431 209.613501 
L 431.704545 210.87076 
L 432.409091 219.191338 
L 433.113636 212.259932 
L 433.818182 216.687101 
L 434.522727 223.62592 
L 435.227273 221.325044 
L 435.931818 227.543185 
L 436.636364 215.266749 
L 437.340909 222.586727 
L 438.045455 220.677571 
L 438.75 216.818314 
L 439.454545 222.856347 
L 440.159091 237.425239 
L 440.863636 221.607827 
L 441.568182 223.036084 
L 442.272727 222.479025 
L 442.977273 217.912513 
L 443.681818 219.033683 
L 444.386364 226.443089 
L 445.090909 224.459187 
L 445.795455 226.013168 
L 446.5 220.493514 
L 447.204545 219.703978 
L 447.909091 219.61774 
L 448.613636 225.386541 
L 449.318182 232.090097 
L 450.022727 227.518046 
L 450.727273 225.058851 
L 451.431818 219.299576 
L 452.136364 225.760904 
L 452.840909 220.640931 
L 453.545455 229.556494 
L 454.25 226.513222 
L 454.954545 229.299587 
L 455.659091 215.66001 
L 456.363636 219.877985 
L 457.068182 207.459655 
L 457.772727 218.448896 
L 458.477273 206.877225 
L 459.181818 227.458265 
L 459.886364 222.417137 
L 460.590909 208.690703 
L 461.295455 223.59101 
L 462 214.803436 
L 462.704545 225.404161 
L 463.409091 229.643962 
L 464.113636 236.470346 
L 464.818182 238.362452 
L 465.522727 228.759507 
L 466.227273 223.9604 
L 466.931818 217.469538 
L 467.636364 215.498674 
L 468.340909 222.572448 
L 469.045455 214.582527 
L 469.75 220.051612 
L 470.454545 211.092282 
L 471.159091 209.547293 
L 471.863636 205.830522 
L 473.272727 209.260189 
L 473.977273 213.522154 
L 474.681818 185.283093 
L 475.386364 189.749674 
L 476.090909 106.764845 
L 476.795455 113.358979 
L 477.5 217.94235 
L 478.204545 219.102237 
L 478.909091 215.336094 
L 479.613636 227.483465 
L 480.318182 218.031499 
L 481.022727 217.745132 
L 481.727273 218.738772 
L 482.431818 225.337305 
L 483.136364 228.615268 
L 483.840909 233.913606 
L 484.545455 224.603205 
L 485.25 228.573238 
L 485.954545 228.490696 
L 486.659091 214.915798 
L 487.363636 224.595202 
L 488.068182 219.846666 
L 488.772727 232.586107 
L 489.477273 221.694993 
L 490.181818 217.954587 
L 490.886364 222.464042 
L 491.590909 221.408946 
L 492.295455 217.042729 
L 493 229.786002 
L 493.704545 223.957616 
L 494.409091 230.638893 
L 495.113636 223.832511 
L 495.818182 220.045344 
L 496.522727 218.656462 
L 497.227273 221.454111 
L 497.931818 221.239786 
L 498.636364 229.307234 
L 499.340909 232.827027 
L 500.045455 228.629437 
L 500.75 215.979143 
L 501.454545 222.101705 
L 502.159091 218.935308 
L 502.863636 206.303974 
L 503.568182 221.320141 
L 504.272727 224.787124 
L 504.977273 223.377314 
L 505.681818 217.74815 
L 506.386364 217.805458 
L 507.090909 213.97492 
L 507.795455 215.50424 
L 508.5 214.944395 
L 509.204545 216.269184 
L 509.909091 217.913895 
L 510.613636 217.464 
L 511.318182 215.303616 
L 512.022727 222.804925 
L 512.727273 224.663207 
L 513.431818 227.858767 
L 514.840909 218.89339 
L 515.545455 210.756926 
L 516.25 209.449043 
L 516.954545 210.461043 
L 517.659091 212.659779 
L 518.363636 224.515119 
L 519.068182 221.66694 
L 519.772727 227.948217 
L 520.477273 207.219817 
L 521.181818 206.487303 
L 521.886364 223.217459 
L 522.590909 222.386406 
L 523.295455 216.400013 
L 524 220.478167 
L 525.409091 205.690413 
L 526.113636 214.894087 
L 526.818182 219.727487 
L 527.522727 217.950629 
L 528.227273 211.289736 
L 528.931818 224.703587 
L 529.636364 212.623497 
L 530.340909 198.216141 
L 531.045455 208.577212 
L 531.75 221.015188 
L 532.454545 214.477856 
L 533.159091 228.574025 
L 533.863636 212.636694 
L 534.568182 214.118015 
L 535.272727 226.379478 
L 535.977273 217.009243 
L 536.681818 213.098841 
L 537.386364 210.156567 
L 538.090909 215.637538 
L 538.795455 217.163941 
L 539.5 201.939252 
L 540.204545 206.016547 
L 540.909091 193.914485 
L 541.613636 199.587704 
L 542.318182 209.798502 
L 543.022727 199.965632 
L 543.727273 213.34932 
L 544.431818 192.955668 
L 545.136364 168.506903 
L 545.840909 180.282871 
L 546.545455 187.491534 
L 547.25 185.714999 
L 547.954545 171.095268 
L 548.659091 172.173906 
L 549.363636 165.047579 
L 550.068182 173.55668 
L 550.772727 190.50002 
L 551.477273 186.671726 
L 552.181818 190.927939 
L 552.886364 203.823723 
L 553.590909 189.249013 
L 554.295455 200.412079 
L 555 190.262942 
L 555.704545 191.940523 
L 556.409091 202.433176 
L 557.113636 184.702463 
L 557.818182 184.115014 
L 558.522727 191.890494 
L 559.227273 179.332238 
L 559.931818 179.344005 
L 560.636364 182.359204 
L 561.340909 192.394411 
L 562.045455 181.174458 
L 562.75 197.45166 
L 563.454545 185.363274 
L 564.159091 198.287757 
L 564.863636 187.754529 
L 565.568182 174.946763 
L 566.272727 197.787161 
L 566.977273 199.973058 
L 567.681818 188.885786 
L 568.386364 201.16141 
L 569.090909 179.82845 
L 569.795455 183.801328 
L 570.5 183.429226 
L 571.204545 196.90211 
L 571.909091 206.10193 
L 572.613636 194.514842 
L 573.318182 179.659049 
L 574.022727 192.663273 
L 574.727273 178.264291 
L 575.431818 182.593658 
L 576.136364 191.275885 
L 576.840909 182.344715 
L 577.545455 202.051868 
L 578.25 203.606996 
L 578.954545 196.568728 
L 579.659091 162.372886 
L 580.363636 177.813189 
L 581.068182 179.527012 
L 581.772727 172.973114 
L 582.477273 178.66448 
L 583.181818 188.128325 
L 583.886364 176.238792 
L 584.590909 149.173478 
L 585.295455 178.434668 
L 586 174.058262 
L 586.704545 165.308206 
L 587.409091 167.717535 
L 588.113636 171.485256 
L 588.818182 179.660073 
L 589.522727 150.251634 
L 590.227273 141.779808 
L 590.931818 181.604713 
L 591.636364 162.947642 
L 592.340909 160.086385 
L 593.045455 152.568897 
L 593.75 158.888055 
L 594.454545 150.467243 
L 595.159091 145.194055 
L 595.863636 169.385861 
L 596.568182 149.156192 
L 597.272727 145.869187 
L 597.977273 146.474099 
L 598.681818 163.485793 
L 599.386364 137.604611 
L 600.090909 152.84349 
L 600.795455 159.441259 
L 601.5 160.79772 
L 602.204545 148.439639 
L 602.909091 155.135094 
L 603.613636 156.882843 
L 604.318182 144.380185 
L 605.022727 137.42408 
L 605.727273 132.600762 
L 606.431818 123.704784 
L 607.136364 135.906303 
L 607.840909 135.121707 
L 608.545455 135.662994 
L 609.25 131.480356 
L 609.954545 104.454368 
L 610.659091 125.969114 
L 611.363636 108.630639 
L 612.068182 108.379255 
L 612.772727 118.107169 
L 613.477273 119.436792 
L 614.181818 88.880053 
L 614.886364 87.690192 
L 615.590909 112.10989 
L 616.295455 76.773474 
L 617 111.041506 
L 617.704545 96.942858 
L 618.409091 91.70937 
L 619.113636 84.150794 
L 619.818182 78.317888 
L 620.522727 80.728841 
L 621.227273 81.039703 
L 621.931818 91.843726 
L 622.636364 82.184999 
L 623.340909 95.194919 
L 624.045455 95.302617 
L 624.75 63.365249 
L 625.454545 99.251263 
L 626.159091 66.592233 
L 626.863636 73.595889 
L 627.568182 71.621843 
L 628.272727 76.281036 
L 629.681818 62.807794 
L 630.386364 71.938725 
L 631.090909 66.513215 
L 631.795455 73.12348 
L 632.5 44.443636 
L 633.204545 79.715062 
L 633.909091 76.915416 
L 634.613636 76.446366 
L 635.318182 87.11164 
L 636.022727 66.812565 
L 636.727273 87.988584 
L 637.431818 68.838222 
L 638.136364 66.452838 
L 638.840909 59.681702 
L 639.545455 66.382441 
L 640.25 83.778994 
L 640.954545 61.298474 
L 641.659091 48.400509 
L 642.363636 75.872511 
L 643.068182 88.996817 
L 643.772727 67.74145 
L 644.477273 69.964097 
L 645.181818 91.547351 
L 645.886364 77.898926 
L 646.590909 99.025034 
L 647.295455 111.808937 
L 648 106.744712 
L 648 106.744712 
" style="fill:none;stroke:#4c72b0;stroke-linecap:round;"/>
   </g>
   <g id="patch_3">
    <path d="M 90 252 
L 90 34.56 
" style="fill:none;stroke:#ffffff;stroke-linecap:square;stroke-linejoin:miter;stroke-width:1.25;"/>
   </g>
   <g id="patch_4">
    <path d="M 648 252 
L 648 34.56 
" style="fill:none;stroke:#ffffff;stroke-linecap:square;stroke-linejoin:miter;stroke-width:1.25;"/>
   </g>
   <g id="patch_5">
    <path d="M 90 252 
L 648 252 
" style="fill:none;stroke:#ffffff;stroke-linecap:square;stroke-linejoin:miter;stroke-width:1.25;"/>
   </g>
   <g id="patch_6">
    <path d="M 90 34.56 
L 648 34.56 
" style="fill:none;stroke:#ffffff;stroke-linecap:square;stroke-linejoin:miter;stroke-width:1.25;"/>
   </g>
   <g id="text_16">
    <!-- 2015-2017 Resort Hotel Daily Rate Trend -->
    <defs>
     <path d="M 3.171875 21.484375 
L 3.171875 30.328125 
L 30.171875 30.328125 
L 30.171875 21.484375 
z
" id="ArialMT-45"/>
     <path d="M 8.015625 0 
L 8.015625 71.578125 
L 17.484375 71.578125 
L 17.484375 42.1875 
L 54.6875 42.1875 
L 54.6875 71.578125 
L 64.15625 71.578125 
L 64.15625 0 
L 54.6875 0 
L 54.6875 33.734375 
L 17.484375 33.734375 
L 17.484375 0 
z
" id="ArialMT-72"/>
     <path d="M 25.921875 0 
L 25.921875 63.140625 
L 2.34375 63.140625 
L 2.34375 71.578125 
L 59.078125 71.578125 
L 59.078125 63.140625 
L 35.40625 63.140625 
L 35.40625 0 
z
" id="ArialMT-84"/>
     <path d="M 40.234375 0 
L 40.234375 6.546875 
Q 35.296875 -1.171875 25.734375 -1.171875 
Q 19.53125 -1.171875 14.328125 2.25 
Q 9.125 5.671875 6.265625 11.796875 
Q 3.421875 17.921875 3.421875 25.875 
Q 3.421875 33.640625 6 39.96875 
Q 8.59375 46.296875 13.765625 49.65625 
Q 18.953125 53.03125 25.34375 53.03125 
Q 30.03125 53.03125 33.6875 51.046875 
Q 37.359375 49.078125 39.65625 45.90625 
L 39.65625 71.578125 
L 48.390625 71.578125 
L 48.390625 0 
z
M 12.453125 25.875 
Q 12.453125 15.921875 16.640625 10.984375 
Q 20.84375 6.0625 26.5625 6.0625 
Q 32.328125 6.0625 36.34375 10.765625 
Q 40.375 15.484375 40.375 25.140625 
Q 40.375 35.796875 36.265625 40.765625 
Q 32.171875 45.75 26.171875 45.75 
Q 20.3125 45.75 16.375 40.96875 
Q 12.453125 36.1875 12.453125 25.875 
z
" id="ArialMT-100"/>
    </defs>
    <g style="fill:#262626;" transform="translate(258.620625 28.56)scale(0.12 -0.12)">
     <use xlink:href="#ArialMT-50"/>
     <use x="55.615234" xlink:href="#ArialMT-48"/>
     <use x="111.230469" xlink:href="#ArialMT-49"/>
     <use x="166.845703" xlink:href="#ArialMT-53"/>
     <use x="222.460938" xlink:href="#ArialMT-45"/>
     <use x="255.761719" xlink:href="#ArialMT-50"/>
     <use x="311.376953" xlink:href="#ArialMT-48"/>
     <use x="366.992188" xlink:href="#ArialMT-49"/>
     <use x="422.607422" xlink:href="#ArialMT-55"/>
     <use x="478.222656" xlink:href="#ArialMT-32"/>
     <use x="506.005859" xlink:href="#ArialMT-82"/>
     <use x="578.222656" xlink:href="#ArialMT-101"/>
     <use x="633.837891" xlink:href="#ArialMT-115"/>
     <use x="683.837891" xlink:href="#ArialMT-111"/>
     <use x="739.453125" xlink:href="#ArialMT-114"/>
     <use x="772.753906" xlink:href="#ArialMT-116"/>
     <use x="800.537109" xlink:href="#ArialMT-32"/>
     <use x="828.320312" xlink:href="#ArialMT-72"/>
     <use x="900.537109" xlink:href="#ArialMT-111"/>
     <use x="956.152344" xlink:href="#ArialMT-116"/>
     <use x="983.935547" xlink:href="#ArialMT-101"/>
     <use x="1039.550781" xlink:href="#ArialMT-108"/>
     <use x="1061.767578" xlink:href="#ArialMT-32"/>
     <use x="1089.550781" xlink:href="#ArialMT-68"/>
     <use x="1161.767578" xlink:href="#ArialMT-97"/>
     <use x="1217.382812" xlink:href="#ArialMT-105"/>
     <use x="1239.599609" xlink:href="#ArialMT-108"/>
     <use x="1261.816406" xlink:href="#ArialMT-121"/>
     <use x="1311.816406" xlink:href="#ArialMT-32"/>
     <use x="1339.599609" xlink:href="#ArialMT-82"/>
     <use x="1411.816406" xlink:href="#ArialMT-97"/>
     <use x="1467.431641" xlink:href="#ArialMT-116"/>
     <use x="1495.214844" xlink:href="#ArialMT-101"/>
     <use x="1550.830078" xlink:href="#ArialMT-32"/>
     <use x="1578.597656" xlink:href="#ArialMT-84"/>
     <use x="1639.634766" xlink:href="#ArialMT-114"/>
     <use x="1672.935547" xlink:href="#ArialMT-101"/>
     <use x="1728.550781" xlink:href="#ArialMT-110"/>
     <use x="1784.166016" xlink:href="#ArialMT-100"/>
    </g>
   </g>
  </g>
 </g>
 <defs>
  <clipPath id="pb2821497b8">
   <rect height="217.44" width="558" x="90" y="34.56"/>
  </clipPath>
 </defs>
</svg>
